<?xml version="1.0" encoding="UTF-8" standalone="no"?>
<!DOCTYPE svg PUBLIC "-//W3C//DTD SVG 1.1//EN"
 "http://www.w3.org/Graphics/SVG/1.1/DTD/svg11.dtd">
<!-- Generated by graphviz version 2.36.0 (20140111.2315)
 -->
<!-- Title: G Pages: 1 -->
<svg width="607pt" height="908pt"
 viewBox="0.00 0.00 607.00 908.00" xmlns="http://www.w3.org/2000/svg" xmlns:xlink="http://www.w3.org/1999/xlink">
<g id="graph0" class="graph" transform="scale(1 1) rotate(0) translate(4 904)">
<title>G</title>
<polygon fill="white" stroke="none" points="-4,4 -4,-904 603,-904 603,4 -4,4"/>
<!-- n1 -->
<g id="node1" class="node"><title>n1</title>
<g id="a_node1"><a xlink:title="[[string &quot;function get_rnn(input_size, rnn_size)...&quot;]]:11_">
<ellipse fill="none" stroke="black" cx="299" cy="-150" rx="88.0829" ry="37.4533"/>
<text text-anchor="middle" x="299" y="-161.3" font-family="Times,serif" font-size="14.00">next_h (1)</text>
<text text-anchor="start" x="244.5" y="-146.3" font-family="Times,serif" font-size="14.00">module = nn.Tanh</text>
<text text-anchor="middle" x="299" y="-131.3" font-family="Times,serif" font-size="14.00">reverseMap = {}</text>
</a>
</g>
</g>
<!-- n2 -->
<g id="node2" class="node"><title>n2</title>
<g id="a_node2"><a xlink:title="[[C]]:&#45;1_">
<ellipse fill="none" stroke="black" cx="299" cy="-38" rx="79.2942" ry="37.4533"/>
<text text-anchor="middle" x="299" y="-49.3" font-family="Times,serif" font-size="14.00">Node2</text>
<text text-anchor="start" x="251" y="-34.3" font-family="Times,serif" font-size="14.00">input = {}</text>
<text text-anchor="middle" x="299" y="-19.3" font-family="Times,serif" font-size="14.00">reverseMap = {}</text>
</a>
</g>
</g>
<!-- n1&#45;&gt;n2 -->
<g id="edge1" class="edge"><title>n1&#45;&gt;n2</title>
<path fill="none" stroke="black" d="M299,-112.372C299,-103.927 299,-94.8286 299,-86.0106"/>
<polygon fill="black" stroke="black" points="302.5,-85.8435 299,-75.8435 295.5,-85.8435 302.5,-85.8435"/>
</g>
<!-- n3 -->
<g id="node3" class="node"><title>n3</title>
<g id="a_node3"><a xlink:title="[[string &quot;function get_rnn(input_size, rnn_size)...&quot;]]:10_">
<ellipse fill="none" stroke="black" cx="299" cy="-272" rx="130.223" ry="48.1667"/>
<text text-anchor="middle" x="299" y="-290.8" font-family="Times,serif" font-size="14.00">added_h (3)</text>
<text text-anchor="start" x="214.5" y="-275.8" font-family="Times,serif" font-size="14.00">module = nn.CAddTable</text>
<text text-anchor="start" x="214.5" y="-260.8" font-family="Times,serif" font-size="14.00">reverseMap = {}</text>
<text text-anchor="middle" x="299" y="-245.8" font-family="Times,serif" font-size="14.00">mapindex = {Node4,Node5}</text>
</a>
</g>
</g>
<!-- n3&#45;&gt;n1 -->
<g id="edge2" class="edge"><title>n3&#45;&gt;n1</title>
<path fill="none" stroke="black" d="M299,-223.573C299,-215.096 299,-206.269 299,-197.81"/>
<polygon fill="black" stroke="black" points="302.5,-197.722 299,-187.722 295.5,-197.722 302.5,-197.722"/>
</g>
<!-- n4 -->
<g id="node4" class="node"><title>n4</title>
<g id="a_node4"><a xlink:title="[[string &quot;function get_rnn(input_size, rnn_size)...&quot;]]:8_">
<ellipse fill="none" stroke="black" cx="145" cy="-394" rx="145.496" ry="37.4533"/>
<text text-anchor="middle" x="145" y="-405.3" font-family="Times,serif" font-size="14.00">i2h (4)</text>
<text text-anchor="start" x="50" y="-390.3" font-family="Times,serif" font-size="14.00">module = nn.Linear(128 &#45;&gt; 128)</text>
<text text-anchor="middle" x="145" y="-375.3" font-family="Times,serif" font-size="14.00">reverseMap = {}</text>
</a>
</g>
</g>
<!-- n4&#45;&gt;n3 -->
<g id="edge3" class="edge"><title>n4&#45;&gt;n3</title>
<path fill="none" stroke="black" d="M189.543,-358.291C204.067,-346.974 220.477,-334.187 236.087,-322.023"/>
<polygon fill="black" stroke="black" points="238.426,-324.637 244.163,-315.73 234.124,-319.116 238.426,-324.637"/>
</g>
<!-- n5 -->
<g id="node5" class="node"><title>n5</title>
<g id="a_node5"><a xlink:title="[[string &quot;function get_rnn(input_size, rnn_size)...&quot;]]:9_">
<ellipse fill="none" stroke="black" cx="454" cy="-394" rx="145.496" ry="37.4533"/>
<text text-anchor="middle" x="454" y="-405.3" font-family="Times,serif" font-size="14.00">h2h (5)</text>
<text text-anchor="start" x="359" y="-390.3" font-family="Times,serif" font-size="14.00">module = nn.Linear(128 &#45;&gt; 128)</text>
<text text-anchor="middle" x="454" y="-375.3" font-family="Times,serif" font-size="14.00">reverseMap = {}</text>
</a>
</g>
</g>
<!-- n5&#45;&gt;n3 -->
<g id="edge4" class="edge"><title>n5&#45;&gt;n3</title>
<path fill="none" stroke="black" d="M409.168,-358.291C394.549,-346.974 378.033,-334.187 362.321,-322.023"/>
<polygon fill="black" stroke="black" points="364.243,-319.084 354.193,-315.73 359.957,-324.619 364.243,-319.084"/>
</g>
<!-- n6 -->
<g id="node6" class="node"><title>n6</title>
<g id="a_node6"><a xlink:title="[[string &quot;function get_rnn(input_size, rnn_size)...&quot;]]:4_">
<ellipse fill="none" stroke="black" cx="168" cy="-506" rx="97.9325" ry="37.4533"/>
<text text-anchor="middle" x="168" y="-517.3" font-family="Times,serif" font-size="14.00">input (6)</text>
<text text-anchor="start" x="106.5" y="-502.3" font-family="Times,serif" font-size="14.00">module = nn.Identity</text>
<text text-anchor="middle" x="168" y="-487.3" font-family="Times,serif" font-size="14.00">reverseMap = {}</text>
</a>
</g>
</g>
<!-- n6&#45;&gt;n4 -->
<g id="edge5" class="edge"><title>n6&#45;&gt;n4</title>
<path fill="none" stroke="black" d="M160.341,-468.372C158.537,-459.744 156.591,-450.435 154.71,-441.439"/>
<polygon fill="black" stroke="black" points="158.098,-440.54 152.625,-431.468 151.246,-441.973 158.098,-440.54"/>
</g>
<!-- n7 -->
<g id="node7" class="node"><title>n7</title>
<g id="a_node7"><a xlink:title="[[string &quot;function get_rnn(input_size, rnn_size)...&quot;]]:5_">
<ellipse fill="none" stroke="black" cx="430" cy="-506" rx="97.9325" ry="37.4533"/>
<text text-anchor="middle" x="430" y="-517.3" font-family="Times,serif" font-size="14.00">prev_h (7)</text>
<text text-anchor="start" x="368.5" y="-502.3" font-family="Times,serif" font-size="14.00">module = nn.Identity</text>
<text text-anchor="middle" x="430" y="-487.3" font-family="Times,serif" font-size="14.00">reverseMap = {}</text>
</a>
</g>
</g>
<!-- n7&#45;&gt;n5 -->
<g id="edge6" class="edge"><title>n7&#45;&gt;n5</title>
<path fill="none" stroke="black" d="M437.992,-468.372C439.874,-459.744 441.905,-450.435 443.868,-441.439"/>
<polygon fill="black" stroke="black" points="447.331,-441.985 446.043,-431.468 440.492,-440.493 447.331,-441.985"/>
</g>
<!-- n8 -->
<g id="node8" class="node"><title>n8</title>
<g id="a_node8"><a xlink:title="[[C]]:&#45;1_&#45;1">
<ellipse fill="none" stroke="black" cx="178" cy="-628" rx="79.2942" ry="48.1667"/>
<text text-anchor="middle" x="178" y="-646.8" font-family="Times,serif" font-size="14.00">Node8</text>
<text text-anchor="start" x="130" y="-631.8" font-family="Times,serif" font-size="14.00">input = {}</text>
<text text-anchor="start" x="130" y="-616.8" font-family="Times,serif" font-size="14.00">selectindex = 1</text>
<text text-anchor="middle" x="178" y="-601.8" font-family="Times,serif" font-size="14.00">reverseMap = {}</text>
</a>
</g>
</g>
<!-- n8&#45;&gt;n6 -->
<g id="edge7" class="edge"><title>n8&#45;&gt;n6</title>
<path fill="none" stroke="black" d="M174.076,-579.917C173.361,-571.328 172.614,-562.368 171.899,-553.787"/>
<polygon fill="black" stroke="black" points="175.365,-553.234 171.047,-543.559 168.389,-553.815 175.365,-553.234"/>
</g>
<!-- n9 -->
<g id="node9" class="node"><title>n9</title>
<g id="a_node9"><a xlink:title="[[C]]:&#45;1_&#45;2">
<ellipse fill="none" stroke="black" cx="373" cy="-628" rx="79.2942" ry="48.1667"/>
<text text-anchor="middle" x="373" y="-646.8" font-family="Times,serif" font-size="14.00">Node9</text>
<text text-anchor="start" x="325" y="-631.8" font-family="Times,serif" font-size="14.00">input = {}</text>
<text text-anchor="start" x="325" y="-616.8" font-family="Times,serif" font-size="14.00">selectindex = 2</text>
<text text-anchor="middle" x="373" y="-601.8" font-family="Times,serif" font-size="14.00">reverseMap = {}</text>
</a>
</g>
</g>
<!-- n9&#45;&gt;n7 -->
<g id="edge8" class="edge"><title>n9&#45;&gt;n7</title>
<path fill="none" stroke="black" d="M394.549,-581.633C399.136,-571.976 403.979,-561.781 408.562,-552.132"/>
<polygon fill="black" stroke="black" points="411.73,-553.62 412.859,-543.085 405.407,-550.616 411.73,-553.62"/>
</g>
<!-- n10 -->
<g id="node10" class="node"><title>n10</title>
<g id="a_node10"><a xlink:title="[[C]]:&#45;1_ split at [/home/luwei/torch/install/share/lua/5.1/nngraph/gmodule.lua]:96&#45;mnode">
<ellipse fill="none" stroke="black" cx="266" cy="-750" rx="84.2802" ry="37.4533"/>
<text text-anchor="middle" x="266" y="-761.3" font-family="Times,serif" font-size="14.00">Node10</text>
<text text-anchor="start" x="214" y="-746.3" font-family="Times,serif" font-size="14.00">reverseMap = {}</text>
<text text-anchor="middle" x="266" y="-731.3" font-family="Times,serif" font-size="14.00">nSplitOutputs = 2</text>
</a>
</g>
</g>
<!-- n10&#45;&gt;n8 -->
<g id="edge9" class="edge"><title>n10&#45;&gt;n8</title>
<path fill="none" stroke="black" d="M240.31,-713.968C232.636,-703.503 224.056,-691.804 215.777,-680.514"/>
<polygon fill="black" stroke="black" points="218.555,-678.383 209.819,-672.389 212.91,-682.523 218.555,-678.383"/>
</g>
<!-- n10&#45;&gt;n9 -->
<g id="edge10" class="edge"><title>n10&#45;&gt;n9</title>
<path fill="none" stroke="black" d="M296.376,-714.934C306.506,-703.572 318.007,-690.674 328.961,-678.389"/>
<polygon fill="black" stroke="black" points="331.651,-680.632 335.694,-670.839 326.426,-675.973 331.651,-680.632"/>
</g>
<!-- n11 -->
<g id="node11" class="node"><title>n11</title>
<g id="a_node11"><a xlink:title="[[C]]:&#45;1_">
<ellipse fill="none" stroke="black" cx="266" cy="-862" rx="79.2942" ry="37.4533"/>
<text text-anchor="middle" x="266" y="-873.3" font-family="Times,serif" font-size="14.00">Node11</text>
<text text-anchor="start" x="218" y="-858.3" font-family="Times,serif" font-size="14.00">input = {}</text>
<text text-anchor="middle" x="266" y="-843.3" font-family="Times,serif" font-size="14.00">reverseMap = {}</text>
</a>
</g>
</g>
<!-- n11&#45;&gt;n10 -->
<g id="edge11" class="edge"><title>n11&#45;&gt;n10</title>
<path fill="none" stroke="black" d="M266,-824.372C266,-815.927 266,-806.829 266,-798.011"/>
<polygon fill="black" stroke="black" points="269.5,-797.843 266,-787.844 262.5,-797.844 269.5,-797.843"/>
</g>
</g>
</svg>
