<?xml version="1.0" encoding="UTF-8" standalone="no"?>
<!DOCTYPE svg PUBLIC "-//W3C//DTD SVG 1.1//EN"
 "http://www.w3.org/Graphics/SVG/1.1/DTD/svg11.dtd">
<!-- Generated by graphviz version 2.36.0 (20140111.2315)
 -->
<!-- Title: G Pages: 1 -->
<svg width="651pt" height="1218pt"
 viewBox="0.00 0.00 651.00 1218.00" xmlns="http://www.w3.org/2000/svg" xmlns:xlink="http://www.w3.org/1999/xlink">
<g id="graph0" class="graph" transform="scale(1 1) rotate(0) translate(4 1214)">
<title>G</title>
<polygon fill="white" stroke="none" points="-4,4 -4,-1214 647,-1214 647,4 -4,4"/>
<!-- n1 -->
<g id="node1" class="node"><title>n1</title>
<g id="a_node1"><a xlink:title="[[C]]:&#45;1_">
<ellipse fill="none" stroke="black" cx="321" cy="-1162" rx="124.176" ry="48.1667"/>
<text text-anchor="middle" x="321" y="-1180.8" font-family="Times,serif" font-size="14.00">Node1</text>
<text text-anchor="start" x="241" y="-1165.8" font-family="Times,serif" font-size="14.00">input = {Tensor[50]}</text>
<text text-anchor="start" x="241" y="-1150.8" font-family="Times,serif" font-size="14.00">reverseMap = {}</text>
<text text-anchor="middle" x="321" y="-1135.8" font-family="Times,serif" font-size="14.00">gradOutput = {Tensor[50]}</text>
</a>
</g>
</g>
<!-- n2 -->
<g id="node2" class="node"><title>n2</title>
<g id="a_node2"><a xlink:title="[[string &quot;input = nn.Identity()()...&quot;]]:10_">
<ellipse fill="none" stroke="black" cx="321" cy="-1008" rx="146.057" ry="69.0935"/>
<text text-anchor="middle" x="321" y="-1041.8" font-family="Times,serif" font-size="14.00">Node2</text>
<text text-anchor="start" x="225.5" y="-1026.8" font-family="Times,serif" font-size="14.00">input = {Tensor[20],Tensor[30]}</text>
<text text-anchor="start" x="225.5" y="-1011.8" font-family="Times,serif" font-size="14.00">mapindex = {Node3,Node4}</text>
<text text-anchor="start" x="225.5" y="-996.8" font-family="Times,serif" font-size="14.00">module = nn.JoinTable</text>
<text text-anchor="start" x="225.5" y="-981.8" font-family="Times,serif" font-size="14.00">reverseMap = {}</text>
<text text-anchor="middle" x="321" y="-966.8" font-family="Times,serif" font-size="14.00">gradOutput = {Tensor[50]}</text>
</a>
</g>
</g>
<!-- n1&#45;&gt;n2 -->
<g id="edge1" class="edge"><title>n1&#45;&gt;n2</title>
<path fill="none" stroke="black" d="M321,-1113.74C321,-1105.38 321,-1096.48 321,-1087.53"/>
<polygon fill="black" stroke="black" points="324.5,-1087.43 321,-1077.43 317.5,-1087.43 324.5,-1087.43"/>
</g>
<!-- n3 -->
<g id="node3" class="node"><title>n3</title>
<g id="a_node3"><a xlink:title="[[string &quot;input = nn.Identity()()...&quot;]]:8_&#45;1">
<ellipse fill="none" stroke="black" cx="156" cy="-843" rx="155.906" ry="58.8803"/>
<text text-anchor="middle" x="156" y="-869.3" font-family="Times,serif" font-size="14.00">Node3</text>
<text text-anchor="start" x="53.5" y="-854.3" font-family="Times,serif" font-size="14.00">input = {{Tensor[20],Tensor[30]}}</text>
<text text-anchor="start" x="53.5" y="-839.3" font-family="Times,serif" font-size="14.00">reverseMap = {}</text>
<text text-anchor="start" x="53.5" y="-824.3" font-family="Times,serif" font-size="14.00">selectindex = 1</text>
<text text-anchor="middle" x="156" y="-809.3" font-family="Times,serif" font-size="14.00">gradOutput = {Tensor[20]}</text>
</a>
</g>
</g>
<!-- n2&#45;&gt;n3 -->
<g id="edge2" class="edge"><title>n2&#45;&gt;n3</title>
<path fill="none" stroke="black" d="M258.15,-944.912C245.01,-931.931 231.164,-918.253 218.053,-905.301"/>
<polygon fill="black" stroke="black" points="220.428,-902.727 210.854,-898.189 215.508,-907.707 220.428,-902.727"/>
</g>
<!-- n4 -->
<g id="node4" class="node"><title>n4</title>
<g id="a_node4"><a xlink:title="[[string &quot;input = nn.Identity()()...&quot;]]:8_&#45;2">
<ellipse fill="none" stroke="black" cx="487" cy="-843" rx="155.906" ry="58.8803"/>
<text text-anchor="middle" x="487" y="-869.3" font-family="Times,serif" font-size="14.00">Node4</text>
<text text-anchor="start" x="384.5" y="-854.3" font-family="Times,serif" font-size="14.00">input = {{Tensor[20],Tensor[30]}}</text>
<text text-anchor="start" x="384.5" y="-839.3" font-family="Times,serif" font-size="14.00">reverseMap = {}</text>
<text text-anchor="start" x="384.5" y="-824.3" font-family="Times,serif" font-size="14.00">selectindex = 2</text>
<text text-anchor="middle" x="487" y="-809.3" font-family="Times,serif" font-size="14.00">gradOutput = {Tensor[30]}</text>
</a>
</g>
</g>
<!-- n2&#45;&gt;n4 -->
<g id="edge3" class="edge"><title>n2&#45;&gt;n4</title>
<path fill="none" stroke="black" d="M383.757,-945.377C397.159,-932.217 411.311,-918.321 424.696,-905.178"/>
<polygon fill="black" stroke="black" points="427.36,-907.467 432.043,-897.964 422.456,-902.473 427.36,-907.467"/>
</g>
<!-- n5 -->
<g id="node5" class="node"><title>n5</title>
<g id="a_node5"><a xlink:title="[[string &quot;input = nn.Identity()()...&quot;]]:8_ split at [[string &quot;input = nn.Identity()()...&quot;]]:8&#45;mnode">
<ellipse fill="none" stroke="black" cx="321" cy="-689" rx="181.589" ry="58.8803"/>
<text text-anchor="middle" x="321" y="-715.3" font-family="Times,serif" font-size="14.00">Node5</text>
<text text-anchor="start" x="200.5" y="-700.3" font-family="Times,serif" font-size="14.00">input = {{Tensor[20],Tensor[30]}}</text>
<text text-anchor="start" x="200.5" y="-685.3" font-family="Times,serif" font-size="14.00">reverseMap = {}</text>
<text text-anchor="start" x="200.5" y="-670.3" font-family="Times,serif" font-size="14.00">nSplitOutputs = 2</text>
<text text-anchor="middle" x="321" y="-655.3" font-family="Times,serif" font-size="14.00">gradOutput = {{Tensor[20],Tensor[30]}}</text>
</a>
</g>
</g>
<!-- n3&#45;&gt;n5 -->
<g id="edge4" class="edge"><title>n3&#45;&gt;n5</title>
<path fill="none" stroke="black" d="M214.173,-788.41C227.048,-776.55 240.791,-763.89 253.986,-751.734"/>
<polygon fill="black" stroke="black" points="256.697,-753.995 261.681,-744.646 251.954,-748.847 256.697,-753.995"/>
</g>
<!-- n4&#45;&gt;n5 -->
<g id="edge5" class="edge"><title>n4&#45;&gt;n5</title>
<path fill="none" stroke="black" d="M428.475,-788.41C415.522,-776.55 401.695,-763.89 388.42,-751.734"/>
<polygon fill="black" stroke="black" points="390.418,-748.818 380.679,-744.646 385.69,-753.98 390.418,-748.818"/>
</g>
<!-- n6 -->
<g id="node6" class="node"><title>n6</title>
<g id="a_node6"><a xlink:title="[[string &quot;input = nn.Identity()()...&quot;]]:8_">
<ellipse fill="none" stroke="black" cx="321" cy="-440" rx="181.589" ry="154.299"/>
<text text-anchor="middle" x="321" y="-533.8" font-family="Times,serif" font-size="14.00">Node6</text>
<text text-anchor="start" x="200.5" y="-518.8" font-family="Times,serif" font-size="14.00">input = {Tensor[2x10]}</text>
<text text-anchor="start" x="200.5" y="-503.8" font-family="Times,serif" font-size="14.00">module = nn.Sequential {</text>
<text text-anchor="start" x="200.5" y="-488.8" font-family="Times,serif" font-size="14.00"> &#160;[input &#45;&gt; (1) &#45;&gt; (2) &#45;&gt; output]</text>
<text text-anchor="start" x="200.5" y="-473.8" font-family="Times,serif" font-size="14.00"> &#160;(1): nn.SplitTable</text>
<text text-anchor="start" x="200.5" y="-458.8" font-family="Times,serif" font-size="14.00"> &#160;(2): nn.ParallelTable {</text>
<text text-anchor="start" x="200.5" y="-443.8" font-family="Times,serif" font-size="14.00"> &#160;&#160;&#160;input</text>
<text text-anchor="start" x="200.5" y="-428.8" font-family="Times,serif" font-size="14.00"> &#160;&#160;&#160;&#160;&#160;|`&#45;&gt; (1): nn.Linear(10 &#45;&gt; 20)</text>
<text text-anchor="start" x="200.5" y="-413.8" font-family="Times,serif" font-size="14.00"> &#160;&#160;&#160;&#160;&#160;&#160;`&#45;&gt; (2): nn.Linear(10 &#45;&gt; 30)</text>
<text text-anchor="start" x="200.5" y="-398.8" font-family="Times,serif" font-size="14.00"> &#160;&#160;&#160;&#160;&#160;&#160;... &#45;&gt; output</text>
<text text-anchor="start" x="200.5" y="-383.8" font-family="Times,serif" font-size="14.00"> &#160;}</text>
<text text-anchor="start" x="200.5" y="-368.8" font-family="Times,serif" font-size="14.00">}</text>
<text text-anchor="start" x="200.5" y="-353.8" font-family="Times,serif" font-size="14.00">reverseMap = {}</text>
<text text-anchor="middle" x="321" y="-338.8" font-family="Times,serif" font-size="14.00">gradOutput = {{Tensor[20],Tensor[30]}}</text>
</a>
</g>
</g>
<!-- n5&#45;&gt;n6 -->
<g id="edge6" class="edge"><title>n5&#45;&gt;n6</title>
<path fill="none" stroke="black" d="M321,-630.089C321,-622.009 321,-613.4 321,-604.48"/>
<polygon fill="black" stroke="black" points="324.5,-604.287 321,-594.287 317.5,-604.287 324.5,-604.287"/>
</g>
<!-- n7 -->
<g id="node7" class="node"><title>n7</title>
<g id="a_node7"><a xlink:title="[[string &quot;input = nn.Identity()()...&quot;]]:7_">
<ellipse fill="none" stroke="black" cx="321" cy="-191" rx="135.086" ry="58.8803"/>
<text text-anchor="middle" x="321" y="-217.3" font-family="Times,serif" font-size="14.00">Node7</text>
<text text-anchor="start" x="233.5" y="-202.3" font-family="Times,serif" font-size="14.00">input = {Tensor[2x10]}</text>
<text text-anchor="start" x="233.5" y="-187.3" font-family="Times,serif" font-size="14.00">module = nn.Identity</text>
<text text-anchor="start" x="233.5" y="-172.3" font-family="Times,serif" font-size="14.00">reverseMap = {}</text>
<text text-anchor="middle" x="321" y="-157.3" font-family="Times,serif" font-size="14.00">gradOutput = {Tensor[2x10]}</text>
</a>
</g>
</g>
<!-- n6&#45;&gt;n7 -->
<g id="edge7" class="edge"><title>n6&#45;&gt;n7</title>
<path fill="none" stroke="black" d="M321,-285.732C321,-276.876 321,-268.238 321,-260.013"/>
<polygon fill="black" stroke="black" points="324.5,-259.833 321,-249.833 317.5,-259.833 324.5,-259.833"/>
</g>
<!-- n8 -->
<g id="node8" class="node"><title>n8</title>
<g id="a_node8"><a xlink:title="[[C]]:&#45;1_">
<ellipse fill="none" stroke="black" cx="321" cy="-48" rx="135.086" ry="48.1667"/>
<text text-anchor="middle" x="321" y="-66.8" font-family="Times,serif" font-size="14.00">Node8</text>
<text text-anchor="start" x="233.5" y="-51.8" font-family="Times,serif" font-size="14.00">input = {Tensor[2x10]}</text>
<text text-anchor="start" x="233.5" y="-36.8" font-family="Times,serif" font-size="14.00">reverseMap = {}</text>
<text text-anchor="middle" x="321" y="-21.8" font-family="Times,serif" font-size="14.00">gradOutput = {Tensor[2x10]}</text>
</a>
</g>
</g>
<!-- n7&#45;&gt;n8 -->
<g id="edge8" class="edge"><title>n7&#45;&gt;n8</title>
<path fill="none" stroke="black" d="M321,-132.243C321,-123.7 321,-114.899 321,-106.364"/>
<polygon fill="black" stroke="black" points="324.5,-106.121 321,-96.1209 317.5,-106.121 324.5,-106.121"/>
</g>
</g>
</svg>
