<?xml version="1.0" encoding="UTF-8" standalone="no"?>
<!DOCTYPE svg PUBLIC "-//W3C//DTD SVG 1.1//EN"
 "http://www.w3.org/Graphics/SVG/1.1/DTD/svg11.dtd">
<!-- Generated by graphviz version 2.36.0 (20140111.2315)
 -->
<!-- Title: G Pages: 1 -->
<svg width="651pt" height="1218pt"
 viewBox="0.00 0.00 651.00 1218.00" xmlns="http://www.w3.org/2000/svg" xmlns:xlink="http://www.w3.org/1999/xlink">
<g id="graph0" class="graph" transform="scale(1 1) rotate(0) translate(4 1214)">
<title>G</title>
<polygon fill="white" stroke="none" points="-4,4 -4,-1214 647,-1214 647,4 -4,4"/>
<!-- n1 -->
<g id="node1" class="node"><title>n1</title>
<g id="a_node1"><a xlink:title="[[string &quot;input = nn.Identity()()...&quot;]]:10_">
<ellipse fill="none" stroke="black" cx="321" cy="-202" rx="146.057" ry="69.0935"/>
<text text-anchor="middle" x="321" y="-235.8" font-family="Times,serif" font-size="14.00">Node1</text>
<text text-anchor="start" x="225.5" y="-220.8" font-family="Times,serif" font-size="14.00">input = {Tensor[20],Tensor[30]}</text>
<text text-anchor="start" x="225.5" y="-205.8" font-family="Times,serif" font-size="14.00">mapindex = {Node3,Node4}</text>
<text text-anchor="start" x="225.5" y="-190.8" font-family="Times,serif" font-size="14.00">module = nn.JoinTable</text>
<text text-anchor="start" x="225.5" y="-175.8" font-family="Times,serif" font-size="14.00">reverseMap = {}</text>
<text text-anchor="middle" x="321" y="-160.8" font-family="Times,serif" font-size="14.00">gradOutput = {Tensor[50]}</text>
</a>
</g>
</g>
<!-- n2 -->
<g id="node2" class="node"><title>n2</title>
<g id="a_node2"><a xlink:title="[[C]]:&#45;1_">
<ellipse fill="none" stroke="black" cx="321" cy="-48" rx="124.176" ry="48.1667"/>
<text text-anchor="middle" x="321" y="-66.8" font-family="Times,serif" font-size="14.00">Node2</text>
<text text-anchor="start" x="241" y="-51.8" font-family="Times,serif" font-size="14.00">input = {Tensor[50]}</text>
<text text-anchor="start" x="241" y="-36.8" font-family="Times,serif" font-size="14.00">reverseMap = {}</text>
<text text-anchor="middle" x="321" y="-21.8" font-family="Times,serif" font-size="14.00">gradOutput = {Tensor[50]}</text>
</a>
</g>
</g>
<!-- n1&#45;&gt;n2 -->
<g id="edge1" class="edge"><title>n1&#45;&gt;n2</title>
<path fill="none" stroke="black" d="M321,-132.559C321,-123.82 321,-114.946 321,-106.406"/>
<polygon fill="black" stroke="black" points="324.5,-106.186 321,-96.1859 317.5,-106.186 324.5,-106.186"/>
</g>
<!-- n3 -->
<g id="node3" class="node"><title>n3</title>
<g id="a_node3"><a xlink:title="[[string &quot;input = nn.Identity()()...&quot;]]:8_&#45;1">
<ellipse fill="none" stroke="black" cx="156" cy="-367" rx="155.906" ry="58.8803"/>
<text text-anchor="middle" x="156" y="-393.3" font-family="Times,serif" font-size="14.00">Node3</text>
<text text-anchor="start" x="53.5" y="-378.3" font-family="Times,serif" font-size="14.00">input = {{Tensor[20],Tensor[30]}}</text>
<text text-anchor="start" x="53.5" y="-363.3" font-family="Times,serif" font-size="14.00">reverseMap = {}</text>
<text text-anchor="start" x="53.5" y="-348.3" font-family="Times,serif" font-size="14.00">selectindex = 1</text>
<text text-anchor="middle" x="156" y="-333.3" font-family="Times,serif" font-size="14.00">gradOutput = {Tensor[20]}</text>
</a>
</g>
</g>
<!-- n3&#45;&gt;n1 -->
<g id="edge2" class="edge"><title>n3&#45;&gt;n1</title>
<path fill="none" stroke="black" d="M210.943,-311.723C223.757,-299.065 237.573,-285.416 250.943,-272.208"/>
<polygon fill="black" stroke="black" points="253.661,-274.443 258.315,-264.925 248.742,-269.463 253.661,-274.443"/>
</g>
<!-- n4 -->
<g id="node4" class="node"><title>n4</title>
<g id="a_node4"><a xlink:title="[[string &quot;input = nn.Identity()()...&quot;]]:8_&#45;2">
<ellipse fill="none" stroke="black" cx="487" cy="-367" rx="155.906" ry="58.8803"/>
<text text-anchor="middle" x="487" y="-393.3" font-family="Times,serif" font-size="14.00">Node4</text>
<text text-anchor="start" x="384.5" y="-378.3" font-family="Times,serif" font-size="14.00">input = {{Tensor[20],Tensor[30]}}</text>
<text text-anchor="start" x="384.5" y="-363.3" font-family="Times,serif" font-size="14.00">reverseMap = {}</text>
<text text-anchor="start" x="384.5" y="-348.3" font-family="Times,serif" font-size="14.00">selectindex = 2</text>
<text text-anchor="middle" x="487" y="-333.3" font-family="Times,serif" font-size="14.00">gradOutput = {Tensor[30]}</text>
</a>
</g>
</g>
<!-- n4&#45;&gt;n1 -->
<g id="edge3" class="edge"><title>n4&#45;&gt;n1</title>
<path fill="none" stroke="black" d="M431.724,-311.723C418.753,-298.986 404.761,-285.247 391.233,-271.963"/>
<polygon fill="black" stroke="black" points="393.362,-269.149 383.774,-264.64 388.457,-274.143 393.362,-269.149"/>
</g>
<!-- n5 -->
<g id="node5" class="node"><title>n5</title>
<g id="a_node5"><a xlink:title="[[string &quot;input = nn.Identity()()...&quot;]]:8_ split at [[string &quot;input = nn.Identity()()...&quot;]]:8&#45;mnode">
<ellipse fill="none" stroke="black" cx="321" cy="-521" rx="181.589" ry="58.8803"/>
<text text-anchor="middle" x="321" y="-547.3" font-family="Times,serif" font-size="14.00">Node5</text>
<text text-anchor="start" x="200.5" y="-532.3" font-family="Times,serif" font-size="14.00">input = {{Tensor[20],Tensor[30]}}</text>
<text text-anchor="start" x="200.5" y="-517.3" font-family="Times,serif" font-size="14.00">reverseMap = {}</text>
<text text-anchor="start" x="200.5" y="-502.3" font-family="Times,serif" font-size="14.00">nSplitOutputs = 2</text>
<text text-anchor="middle" x="321" y="-487.3" font-family="Times,serif" font-size="14.00">gradOutput = {{Tensor[20],Tensor[30]}}</text>
</a>
</g>
</g>
<!-- n5&#45;&gt;n3 -->
<g id="edge4" class="edge"><title>n5&#45;&gt;n3</title>
<path fill="none" stroke="black" d="M261.431,-465.125C248.545,-453.253 234.847,-440.635 221.739,-428.56"/>
<polygon fill="black" stroke="black" points="223.827,-425.724 214.1,-421.523 219.084,-430.872 223.827,-425.724"/>
</g>
<!-- n5&#45;&gt;n4 -->
<g id="edge5" class="edge"><title>n5&#45;&gt;n4</title>
<path fill="none" stroke="black" d="M380.461,-465.554C393.648,-453.479 407.699,-440.613 421.126,-428.319"/>
<polygon fill="black" stroke="black" points="423.499,-430.891 428.511,-421.556 418.772,-425.728 423.499,-430.891"/>
</g>
<!-- n6 -->
<g id="node6" class="node"><title>n6</title>
<g id="a_node6"><a xlink:title="[[string &quot;input = nn.Identity()()...&quot;]]:8_">
<ellipse fill="none" stroke="black" cx="321" cy="-770" rx="181.589" ry="154.299"/>
<text text-anchor="middle" x="321" y="-863.8" font-family="Times,serif" font-size="14.00">Node6</text>
<text text-anchor="start" x="200.5" y="-848.8" font-family="Times,serif" font-size="14.00">input = {Tensor[2x10]}</text>
<text text-anchor="start" x="200.5" y="-833.8" font-family="Times,serif" font-size="14.00">module = nn.Sequential {</text>
<text text-anchor="start" x="200.5" y="-818.8" font-family="Times,serif" font-size="14.00"> &#160;[input &#45;&gt; (1) &#45;&gt; (2) &#45;&gt; output]</text>
<text text-anchor="start" x="200.5" y="-803.8" font-family="Times,serif" font-size="14.00"> &#160;(1): nn.SplitTable</text>
<text text-anchor="start" x="200.5" y="-788.8" font-family="Times,serif" font-size="14.00"> &#160;(2): nn.ParallelTable {</text>
<text text-anchor="start" x="200.5" y="-773.8" font-family="Times,serif" font-size="14.00"> &#160;&#160;&#160;input</text>
<text text-anchor="start" x="200.5" y="-758.8" font-family="Times,serif" font-size="14.00"> &#160;&#160;&#160;&#160;&#160;|`&#45;&gt; (1): nn.Linear(10 &#45;&gt; 20)</text>
<text text-anchor="start" x="200.5" y="-743.8" font-family="Times,serif" font-size="14.00"> &#160;&#160;&#160;&#160;&#160;&#160;`&#45;&gt; (2): nn.Linear(10 &#45;&gt; 30)</text>
<text text-anchor="start" x="200.5" y="-728.8" font-family="Times,serif" font-size="14.00"> &#160;&#160;&#160;&#160;&#160;&#160;... &#45;&gt; output</text>
<text text-anchor="start" x="200.5" y="-713.8" font-family="Times,serif" font-size="14.00"> &#160;}</text>
<text text-anchor="start" x="200.5" y="-698.8" font-family="Times,serif" font-size="14.00">}</text>
<text text-anchor="start" x="200.5" y="-683.8" font-family="Times,serif" font-size="14.00">reverseMap = {}</text>
<text text-anchor="middle" x="321" y="-668.8" font-family="Times,serif" font-size="14.00">gradOutput = {{Tensor[20],Tensor[30]}}</text>
</a>
</g>
</g>
<!-- n6&#45;&gt;n5 -->
<g id="edge6" class="edge"><title>n6&#45;&gt;n5</title>
<path fill="none" stroke="black" d="M321,-615.732C321,-606.876 321,-598.238 321,-590.013"/>
<polygon fill="black" stroke="black" points="324.5,-589.833 321,-579.833 317.5,-589.833 324.5,-589.833"/>
</g>
<!-- n7 -->
<g id="node7" class="node"><title>n7</title>
<g id="a_node7"><a xlink:title="[[string &quot;input = nn.Identity()()...&quot;]]:7_">
<ellipse fill="none" stroke="black" cx="321" cy="-1019" rx="135.086" ry="58.8803"/>
<text text-anchor="middle" x="321" y="-1045.3" font-family="Times,serif" font-size="14.00">Node7</text>
<text text-anchor="start" x="233.5" y="-1030.3" font-family="Times,serif" font-size="14.00">input = {Tensor[2x10]}</text>
<text text-anchor="start" x="233.5" y="-1015.3" font-family="Times,serif" font-size="14.00">module = nn.Identity</text>
<text text-anchor="start" x="233.5" y="-1000.3" font-family="Times,serif" font-size="14.00">reverseMap = {}</text>
<text text-anchor="middle" x="321" y="-985.3" font-family="Times,serif" font-size="14.00">gradOutput = {Tensor[2x10]}</text>
</a>
</g>
</g>
<!-- n7&#45;&gt;n6 -->
<g id="edge7" class="edge"><title>n7&#45;&gt;n6</title>
<path fill="none" stroke="black" d="M321,-960.089C321,-952.009 321,-943.4 321,-934.48"/>
<polygon fill="black" stroke="black" points="324.5,-934.287 321,-924.287 317.5,-934.287 324.5,-934.287"/>
</g>
<!-- n8 -->
<g id="node8" class="node"><title>n8</title>
<g id="a_node8"><a xlink:title="[[C]]:&#45;1_">
<ellipse fill="none" stroke="black" cx="321" cy="-1162" rx="135.086" ry="48.1667"/>
<text text-anchor="middle" x="321" y="-1180.8" font-family="Times,serif" font-size="14.00">Node8</text>
<text text-anchor="start" x="233.5" y="-1165.8" font-family="Times,serif" font-size="14.00">input = {Tensor[2x10]}</text>
<text text-anchor="start" x="233.5" y="-1150.8" font-family="Times,serif" font-size="14.00">reverseMap = {}</text>
<text text-anchor="middle" x="321" y="-1135.8" font-family="Times,serif" font-size="14.00">gradOutput = {Tensor[2x10]}</text>
</a>
</g>
</g>
<!-- n8&#45;&gt;n7 -->
<g id="edge8" class="edge"><title>n8&#45;&gt;n7</title>
<path fill="none" stroke="black" d="M321,-1113.66C321,-1105.38 321,-1096.62 321,-1087.91"/>
<polygon fill="black" stroke="black" points="324.5,-1087.74 321,-1077.74 317.5,-1087.74 324.5,-1087.74"/>
</g>
</g>
</svg>
